<?xml version="1.0" encoding="utf-8" ?><svg xmlns="http://www.w3.org/2000/svg" xmlns:xlink="http://www.w3.org/1999/xlink" width="1408" height="768" viewBox="0 0 1408 768"><path d="M446.538 225.782C447.987 225.603 448.378 225.66 449.845 225.79C450.933 227.663 450.417 343.696 450.481 357.88C525.781 357.024 602.324 357.84 677.749 357.706C677.499 343.304 677.971 328.699 677.772 314.327C677.245 276.371 699.467 241.156 736.571 229.933C754.498 224.51 770.715 225.689 789.066 225.703C804.702 225.622 820.338 225.701 835.972 225.94C836.226 243.123 836.026 260.906 835.985 278.115C822.709 278.574 807.899 278.069 794.207 278.121C764.424 278.233 731.117 272.581 731.09 314.656C731.084 325.324 731.132 337.506 731.145 348.387L731.124 443.281C731.133 457.838 729.336 469.856 740.93 481.049C752.171 491.899 769.904 489.699 784.481 489.698L830.395 489.647C832.021 489.635 833.714 489.778 835.342 489.88C836.995 491.961 836.334 536.494 836.159 542.407L787.472 542.492C753.238 542.534 729.141 543.502 702.253 517.388C672.158 488.161 677.634 449.44 677.543 410.373C669.254 409.875 657.666 410.225 649.202 410.228L596.767 410.231L450.541 410.351C450.295 453.901 451.254 499.283 450.463 542.533C437.561 542.085 426.962 538.424 416.763 530.578C392.124 511.623 396.805 479.988 396.809 452.517L396.814 376.886L396.797 311.166C396.785 283.544 393.22 254.66 418.717 236.234C427.759 229.7 435.396 226.997 446.538 225.782Z"/><path d="M859.754 225.8C860.659 225.757 861.564 225.731 862.469 225.72L904.304 225.692C936.811 225.71 961.389 225.641 986.107 250.026C1014.67 278.208 1010.98 313.555 1011.05 349.84L1011.13 427.034C1011.11 461.312 1012.66 491.198 985.925 517.564C964.238 538.956 941.382 542.618 912.656 542.459L859.499 542.474C859.776 525.115 859.558 507.121 859.57 489.714C875.359 489.241 891.391 489.984 907.256 489.753C921.522 489.545 936.189 491.732 947.598 480.728C956.678 472.149 957.56 461.859 957.573 450.176C957.624 404.941 957.655 359.722 957.572 314.488C957.378 311.163 957.552 307.353 956.887 304.084C950.932 274.796 925.857 278.031 903.42 278.091L859.557 278.234C859.536 261.636 859.085 242.132 859.754 225.8Z"/></svg>