<?xml version="1.0" encoding="utf-8" ?><svg xmlns="http://www.w3.org/2000/svg" xmlns:xlink="http://www.w3.org/1999/xlink" width="1487" height="720" viewBox="0 0 1487 720"><path fill="#212120" d="M893.876 189.023C896.514 188.681 902.127 188.677 905.056 188.662C946.969 188.361 987.235 204.962 1016.75 234.713C1050.71 268.416 1065.17 311.659 1065.69 358.826C1066.72 452.487 998.971 531.656 902.392 531.235C848.898 532.282 797.902 506.837 763.739 466.46C720.837 415.754 680.578 363.844 607.628 361.794C595.778 361.461 583.351 361.441 571.144 361.444L500.246 361.503L500.197 437.906C500.194 454.903 499.498 471.874 501.541 488.761C504.073 509.693 514.799 517.124 534.254 519.973C535.029 521.891 534.968 521.037 534.262 523.26C530.764 525.956 523.066 524.588 518.556 524.564L489.23 524.563C470.701 524.57 442.041 525.46 424.088 524.206L423.292 523.006C426.64 516.932 447.511 518.233 452.846 503.274C460.249 482.516 458.198 458.629 458.208 436.831L458.208 367.689L458.256 290.777C458.268 275.149 458.535 259.207 457.861 243.626C457.551 236.461 456.971 227.515 454.516 220.877C447.173 201.021 435.398 204.717 423.514 198.871C423.348 197.203 423.186 196.925 424.016 195.582C445.287 194.756 469.085 195.644 490.638 195.296C499.744 195.149 526.44 194.721 534.108 195.68C534.963 197.23 534.847 197.555 534.557 199.328C533.074 201.056 529.009 201.217 526.56 201.554C501.622 206.454 500.355 229.733 500.214 250.372C500.149 259.753 500.168 269.158 500.174 278.537L500.237 346.251L602.645 346.276C621.645 346.279 638.342 345.821 656.994 347.979C720.05 355.275 758.647 392.674 793.809 441.43C810.72 464.878 831.099 491.864 856.598 506.25C877.145 518.648 907.22 522.314 930.032 515.06C1042.66 479.24 1045.63 264.967 948.437 212.413C926.315 200.428 900.323 197.766 876.229 205.018C820.02 221.804 794.929 284.104 790.262 337.623C787.588 368.276 790.375 397.166 799.16 426.665C785.322 405.349 762.638 382.825 742.397 367.637C742.39 367.539 742.383 367.441 742.376 367.343C738.201 274.024 799.764 195.413 893.876 189.023Z"/><path fill="#212120" d="M635.762 195.286L708.046 195.312C718.637 195.311 735.761 194.773 745.946 195.521C747.275 197.117 746.877 196.42 746.896 199.162C744.9 201.652 729.044 201.865 722.653 209.843C709.798 225.889 712.207 249.585 712.197 269.177L712.222 315.074L712.292 349.117C696.904 342.896 687.075 339.543 670.494 336.279C670.797 316.511 670.907 296.741 670.826 276.971C670.839 253.076 676.04 206.431 645.026 202.143C642.951 201.856 637.87 200.624 636.255 199.54L635.762 195.286Z"/><path fill="#212120" d="M670.604 393.766C685.656 401.724 700.411 415.811 712.171 428.047C712.599 450.33 707.673 496.482 724.112 511.698C730.655 517.754 743.445 517.428 746.876 521.471L746.616 522.875C743.188 525.889 717.8 524.623 711.371 524.547C702.952 524.545 639.331 525.435 636.799 523.595L636.548 520.723C642.314 516.849 653.002 519.112 660.308 510.213C673.212 494.494 670.83 466.974 670.8 447.514L670.604 393.766Z"/><path fill="#212120" d="M903.946 314.71C913.277 347.862 916.213 351.702 950.211 360.002C916.924 365.879 912.147 374.888 903.993 405.291C896.319 372.909 890 367.696 858.011 359.865C891.279 352.345 895.462 346.564 903.946 314.71Z"/></svg>