<?xml version="1.0" encoding="utf-8" ?><svg xmlns="http://www.w3.org/2000/svg" xmlns:xlink="http://www.w3.org/1999/xlink" width="1408" height="768" viewBox="0 0 1408 768"><path fill="white" d="M446.681 225.79C448.054 225.543 448.509 225.631 449.86 225.736C450.818 227.54 450.498 346.326 450.6 357.834L677.766 357.677C677.115 345.954 678.223 333.228 677.685 321.765C675.946 284.752 691.312 250.346 725.95 233.979C746.966 224.049 765.843 225.649 788.524 225.666L835.995 225.822C836.193 243.158 836.038 260.795 835.998 278.145L786.71 278.121C771.427 278.111 752.282 275.591 740.669 286.996C730.025 297.45 731.231 309.165 731.11 322.831C731.027 332.087 731.108 341.321 731.107 350.559L731.112 445.835C731.139 459.62 730.213 471.075 741.123 481.481C752.048 491.901 770.847 489.75 784.831 489.732L832.734 489.628C834.882 489.629 834.504 489.304 836 490.302C836.75 496.561 836.263 503.365 836.301 509.732C836.366 520.624 836.428 531.506 836.163 542.396L787.437 542.477C753.357 542.515 728.993 543.418 702.264 517.377C672.236 488.123 677.595 449.449 677.576 410.384C649.946 409.401 616.651 410.25 588.625 410.261L450.52 410.379C450.282 453.901 451.253 499.239 450.456 542.474C438.703 542.38 427.289 538.518 417.893 531.455C406.706 522.855 399.367 510.185 397.472 496.201C396.329 487.439 396.822 466.88 396.82 457.401L396.824 386.343L396.782 313.536C396.764 284.725 392.664 253.376 420.447 235.012C429.239 229.2 436.276 227.051 446.681 225.79Z"/><path fill="white" d="M859.736 225.713L904.763 225.656C937.024 225.606 961.447 225.679 985.945 249.949C1015.91 279.634 1011.01 318.952 1011.04 357.143L1011.08 441.145C1010.97 465.151 1010.33 484.852 995.968 505.183C974.224 535.958 947.331 542.69 911.969 542.456L859.523 542.476L859.548 489.679C875.269 489.338 891.164 490.003 906.922 489.788C921.309 489.591 935.945 491.885 947.418 480.873C957.052 471.626 957.546 461.858 957.562 449.383C957.601 418.163 957.423 386.93 957.512 355.71C957.505 345.922 958.236 311.017 956.615 302.946C955.33 296.764 952.269 291.092 947.807 286.625C936.89 275.735 917.938 278.006 903.557 278.06L859.591 278.236C859.52 261.561 859.07 242.188 859.736 225.713Z"/></svg>