<?xml version="1.0" encoding="utf-8" ?><svg xmlns="http://www.w3.org/2000/svg" xmlns:xlink="http://www.w3.org/1999/xlink" width="1487" height="720" viewBox="0 0 1487 720"><path fill="white" d="M893.818 189.023C896.247 188.702 901.257 188.705 903.944 188.676C945.661 188.082 985.884 204.186 1015.66 233.403C1050.25 267.341 1065.06 310.633 1065.71 358.35C1066.98 452.315 999.15 531.613 902.443 531.283C847.852 532.202 796.915 506.325 762.288 465.013C719.851 414.382 679.28 363.548 606.885 361.765C595.389 361.482 583.344 361.46 571.524 361.465L500.254 361.619L500.22 424.69C500.214 445.969 498.367 479.729 504.006 499.347C508.79 515.994 523.66 516.143 533.656 520.718C535.153 522.646 534.96 521.829 534.748 523.808C529.331 526.733 445.726 523.268 432.295 524.566C430.599 524.73 424.763 524.251 423.411 523.053C425.131 517.865 438.97 518.959 447.268 510.701C457.078 500.94 457.537 485.286 457.943 472.034C458.431 456.078 458.138 439.319 458.122 423.368L458.155 343.512L458.196 281.94C458.203 260.872 459.993 236.82 452.82 216.847C447.427 201.829 427.929 203.389 422.132 197.168L423.288 195.951C426.459 195.092 442.904 195.298 446.813 195.298L493.958 195.387C501.553 195.41 528.455 194.292 533.784 196.257C535.259 197.923 534.972 197.099 534.844 199.338C533.09 201.032 531.152 200.793 528.343 201.205C512.634 204.207 504.217 212.878 501.842 228.672C499.481 244.368 500.189 260.368 500.192 276.22L500.249 346.251L599.684 346.266C619.543 346.264 636.702 345.775 656.321 347.963C714.896 354.493 753.331 387.077 787.058 432.45C805.783 457.641 826.228 487.459 853.134 504.143C874.863 517.784 901.195 522.036 926.115 515.929C1039.12 488.948 1047.86 271.872 952.07 214.551C930.364 201.451 904.286 197.669 879.751 204.062C813.15 221.129 788.283 301.026 789.257 362.184C789.61 384.388 793.239 404.528 798.751 425.887C781.903 402.755 765.122 384.681 742.202 367.566C740.417 273.81 796.535 195.734 893.818 189.023Z"/><path fill="white" d="M635.752 195.309L711.265 195.307C716.98 195.295 741.756 194.877 746.121 195.537L746.866 196.809C746.714 197.54 746.595 199.036 746.274 199.662C745.682 200.819 729.164 203.219 722.65 209.767C717.812 214.631 715.56 221.426 714.217 228.01C711.525 241.21 712.185 255.229 712.183 268.647L712.227 315.181L712.276 349.046C696.484 342.622 687.023 339.622 670.455 336.264L670.467 272.976C670.442 249.312 675.448 206.667 644.745 202.085C642.728 201.785 637.667 200.598 636.241 199.547L635.752 195.309Z"/><path fill="white" d="M670.512 393.57C686.177 402.395 699.844 415.102 712.269 427.976C712.218 449.005 709.909 483.928 717.609 502.516C723.533 516.816 736.862 516.871 746.734 520.386L747.091 521.784L745.975 523.283C740.768 525.752 719.887 524.686 712.805 524.599C703.729 524.586 638.661 525.284 636.689 523.875C635.734 520.114 636.385 519.71 639.934 519.334C675.385 515.578 670.788 475.263 670.714 447.485L670.512 393.57Z"/><path fill="white" d="M904.033 314.736C912.627 348.226 917.621 351.568 950.308 360.008C917.236 366.511 911.903 374.131 904.148 405.407C895.645 373.017 890.771 367.754 857.895 359.893C891.437 351.61 894.692 347.596 904.033 314.736Z"/></svg>